<svg width="60" height="42" viewBox="0 0 60 42" fill="none" xmlns="http://www.w3.org/2000/svg">
<path d="M36.7 4C43.2 4 48.4 9.3 48.4 15.7V16.6C45.7 16.8 43.2 17.9 41.3 19.6C42.7 18.8 44.4 18.3 46.2 18.3C46.9 18.3 47.5 18.4 48.1 18.5C49.2 18.7 50.2 19.1 51.1 19.6C54 21.3 56 24.5 56 28.1C56 32.8 52.7 36.7 48.4 37.7C47.7 37.9 47 38 46.2 38H12C11.1 38 10.3 37.9 9.5 37.6C6.3 36.5 4 33.5 4 30C4 27.6 5.1 25.4 6.7 24C7.5 23.3 8.3 22.8 9.3 22.5C10.1 22.2 11 22 11.9 22C14.5 22 16.8 23.2 18.2 25.1H18.3C16.6 22 13.4 19.8 9.7 19.4C11.1 14.6 15.5 11 20.8 11C21.4 11 21.9 11.1 22.4 11.1C23.5 11.3 24.5 11.5 25.4 12C28.9 13.6 31.5 16.9 32.1 20.9V20.8C32.1 16.3 29.8 12.3 26.3 10C28.5 6.4 32.3 4 36.7 4ZM36.7 0C31.3 0 26.3 2.8 23.4 7.3C23.3 7.3 23.2 7.3 23.1 7.2C22.3 7.1 21.6 7 20.9 7C14 7 7.9 11.6 6 18.3L5.5 19.9C5 20.2 4.5 20.6 4.1 21C1.5 23.2 0 26.5 0 30C0 35.2 3.3 39.8 8.2 41.4C9.4 41.8 10.7 42 12 42H46.2C47.2 42 48.3 41.9 49.3 41.6C55.6 40.1 60 34.6 60 28.1C60 23.2 57.3 18.6 53.1 16.1L52.5 15.8V15.7C52.4 7.1 45.4 0 36.7 0Z" fill="#75D6FF"/>
</svg>
