<svg width="50" height="54" viewBox="0 0 50 54" fill="none" xmlns="http://www.w3.org/2000/svg">
<path d="M23.7109 42.2719L23.6016 25.5867L25.6094 25.7049L25.7227 43.1747L23.7109 42.2719Z" fill="#6AA5AD"/>
<path d="M19.1171 45.4233C17.9375 45.36 17.3359 46.3219 17.4882 48.1233C17.6406 49.9247 18.6211 52.6542 22.0351 52.5825C25.9765 52.5023 26.2734 49.5408 26.2109 46.267C26.1679 43.9889 26.2109 42.1833 26.0976 42.1031C25.9843 42.023 23.25 41.9428 23.0976 42.1073C22.9453 42.2719 23.0586 45.8325 23.0234 46.6889C22.9882 47.5453 23.125 49.2708 21.6601 49.2244C20.5234 49.1906 20.3711 48.1612 20.3711 47.6676C20.3711 47.174 20.6328 45.5034 19.1171 45.4233Z" fill="#3F7377"/>
<path d="M20.7969 18.7608L24.5547 11.4539C24.5547 11.4539 17.1407 10.4625 10.5586 15.9849C2.18754 23.0049 3.51566 30.7041 3.51566 30.7041C3.51566 30.7041 6.70316 27.4219 9.31253 27.675C11.9219 27.9281 15.1914 31.3327 15.1914 31.3327L20.7969 18.7608Z" fill="#937EF3"/>
<path d="M25.4648 13.6941L24.9258 11.4539C24.9258 11.4539 32.457 11.3653 38.0625 15.3351C47.707 22.1611 46.6406 29.7844 46.6406 29.7844C46.6406 29.7844 44.5469 26.6372 39.9531 26.8608C35.3594 27.0844 33.6719 31.5141 33.6719 31.5141L25.4648 13.6941Z" fill="#5547F4"/>
<path d="M32.8593 0.472491C32.3906 0.502022 31.9336 1.89421 31.2421 3.52265C30.5507 5.15108 29.2812 6.75843 29.9062 9.13358C30.7578 12.3651 35.7265 12.3441 35.8554 7.9903C35.8984 6.49687 34.6718 4.38327 34.2812 3.35812C33.8906 2.33296 33.4179 0.438741 32.8593 0.472491Z" fill="url(#paint0_radial)"/>
<path d="M31.4844 5.95265C30.9219 5.99906 30.4258 6.95671 30.6211 8.36577C30.8164 9.77484 31.7305 10.1377 32.1523 9.92671C32.6641 9.66937 32.3008 8.82562 32.168 7.91015C32.0352 6.99468 32.3203 5.88093 31.4844 5.95265Z" fill="#ACE8FE"/>
<path d="M39.7383 10.9519C39.293 10.9223 39.2774 12.0614 37.9766 14.3691C37.1133 15.8962 36.3399 17.6302 36.7969 19.3514C37.6836 22.6842 42.6719 22.5366 42.8008 18.187C42.8438 16.6936 42.0157 15.4828 41.3321 14.0822C40.8516 13.1077 40.0977 10.9772 39.7383 10.9519Z" fill="url(#paint1_radial)"/>
<path d="M38.5351 16.2253C38.0391 16.0439 37.3359 16.9763 37.3984 18.3727C37.4609 19.7606 38.3906 20.5327 38.918 20.1066C39.4101 19.7058 38.8086 18.5625 38.8086 17.8538C38.8047 17.145 39.0391 16.4109 38.5351 16.2253Z" fill="#ACE8FE"/>
<path d="M8.88673 12.0488C8.4922 12.0319 8.03516 13.3861 7.34376 15.0145C6.65235 16.643 5.38282 17.6259 5.83204 20.2331C6.42188 23.6503 11.8399 23.8233 11.9688 19.4738C12.0117 17.9803 10.875 15.9764 10.4141 14.9892C9.85157 13.7742 9.23438 12.0656 8.88673 12.0488Z" fill="url(#paint2_radial)"/>
<path d="M7.19915 17.55C6.40618 17.5373 6.289 19.305 6.51165 20.0686C6.7304 20.8195 7.05853 21.465 7.7304 21.3005C8.39056 21.1359 7.94915 19.9505 7.83587 19.2755C7.72259 18.5962 7.83197 17.5627 7.19915 17.55Z" fill="#ACE8FE"/>
<path d="M16.3516 0.780475C15.9062 0.738287 15.582 1.91954 15.418 2.32032C15.0273 3.25688 13.1133 5.83454 13.1601 8.23501C13.2109 10.9139 15.1797 11.6227 16.4336 11.572C17.7734 11.5214 19.6836 10.6313 19.3008 7.80891C19.1523 6.72469 18.5781 5.48438 18.0664 4.24829C17.3047 2.39626 17.0117 0.843756 16.3516 0.780475Z" fill="url(#paint3_radial)"/>
<path d="M15.0547 6.21422C14.4649 6.03282 13.9493 7.20563 14.0743 8.47547C14.1915 9.69047 14.7657 10.4245 15.2501 10.2684C16.2735 9.93938 15.5001 8.85516 15.4727 7.96501C15.4493 7.1761 15.5782 6.37454 15.0547 6.21422Z" fill="#ACE8FE"/>
<path d="M33.6914 31.1934C33.6914 31.1934 33.2734 23.7431 31.6718 19.9125C28.75 12.922 24.7265 11.5678 24.7265 11.5678C24.7265 11.5678 19.8828 14.137 17.3398 20.4778C14.7968 26.8186 15.2304 31.2947 15.2304 31.2947C15.2304 31.2947 19.1484 26.46 24.8515 27.1266C30.5546 27.7889 33.6914 31.1934 33.6914 31.1934Z" fill="#6E62ED"/>
<path d="M23.3202 11.7534C23.2695 11.5383 23.3124 8.67375 23.2968 8.05781C23.2734 7.14656 23.9882 6.56438 24.6366 6.58547C25.4804 6.61078 25.7773 7.41656 25.8007 7.97766C25.8242 8.53875 25.8281 11.6859 25.8242 11.7239C25.7929 12.053 25.3476 12.3652 24.5585 12.3652C23.9882 12.3736 23.3867 12.0488 23.3202 11.7534Z" fill="#6CA4AB"/>
<path d="M33.6641 32.1553C34.2578 32.1173 36.6172 27.7298 40.3281 27.7678C45.3633 27.8226 46.0078 30.645 46.5352 30.3581C47.1172 30.0375 46.2617 28.8647 45.5 28.0167C44.4258 26.8186 42.7031 26.093 40.0312 26.2786C36.1406 26.5528 33.6289 30.2822 33.6289 30.2822C33.6289 30.2822 30.3086 26.3714 24.4922 26.3714C18.8633 26.3714 15.2344 30.6914 15.2344 30.6914C15.2344 30.6914 13.3945 27.1772 8.91797 27.0928C4.96093 27.0169 3.25 30.4594 3.52734 30.7589C3.80468 31.0584 5.91406 28.3289 8.86719 28.4681C12.9297 28.6537 14.3516 32.3198 15.1289 32.3409C15.9062 32.362 18.9375 27.9408 24.5625 28.0462C30.6016 28.1601 33.1094 32.1933 33.6641 32.1553Z" fill="#004DAE"/>
<path d="M24.6718 14.2678C24.3047 14.2763 23.7461 15.6895 23.0547 17.318C22.3633 18.9464 20.9336 20.7183 21.7617 23.0175C22.7304 25.6964 27.4101 25.8145 27.625 21.638C27.7031 20.1445 26.5039 18.1659 26.0937 17.1534C25.4062 15.4617 25.0039 14.2594 24.6718 14.2678Z" fill="url(#paint4_radial)"/>
<path d="M22.8438 20.2669C22.3164 20.2247 21.9492 21.2963 22.2383 22.3763C22.5313 23.4731 23.1407 23.9203 23.6446 23.7052C24.2891 23.4309 23.7617 22.6294 23.625 21.9122C23.4883 21.195 23.6446 20.3302 22.8438 20.2669Z" fill="#ACE8FE"/>
<defs>
<radialGradient id="paint0_radial" cx="0" cy="0" r="1" gradientUnits="userSpaceOnUse" gradientTransform="translate(32.7484 0.566147) scale(10.6367 11.4877)">
<stop offset="0.517" stop-color="#71D3FF"/>
<stop offset="0.581" stop-color="#6CD2FE"/>
<stop offset="0.658" stop-color="#5DCEFA"/>
<stop offset="0.743" stop-color="#44C8F4"/>
<stop offset="0.833" stop-color="#22C0EB"/>
<stop offset="0.907" stop-color="#00B7E2"/>
</radialGradient>
<radialGradient id="paint1_radial" cx="0" cy="0" r="1" gradientUnits="userSpaceOnUse" gradientTransform="translate(39.6895 11.2193) scale(9.20352 9.9398)">
<stop offset="0.61" stop-color="#71D3FF"/>
<stop offset="0.663" stop-color="#6CD2FE"/>
<stop offset="0.727" stop-color="#5DCEFA"/>
<stop offset="0.798" stop-color="#44C8F4"/>
<stop offset="0.872" stop-color="#22C0EB"/>
<stop offset="0.934" stop-color="#00B7E2"/>
</radialGradient>
<radialGradient id="paint2_radial" cx="0" cy="0" r="1" gradientUnits="userSpaceOnUse" gradientTransform="translate(8.82696 12.0104) scale(9.28945 10.0326)">
<stop offset="0.669" stop-color="#71D3FF"/>
<stop offset="0.718" stop-color="#6CD2FE"/>
<stop offset="0.776" stop-color="#5DCEFA"/>
<stop offset="0.84" stop-color="#44C8F4"/>
<stop offset="0.907" stop-color="#22C0EB"/>
<stop offset="0.964" stop-color="#00B7E2"/>
</radialGradient>
<radialGradient id="paint3_radial" cx="0" cy="0" r="1" gradientUnits="userSpaceOnUse" gradientTransform="translate(16.0816 0.48938) scale(9.97617 10.7743)">
<stop offset="0.665" stop-color="#71D3FF"/>
<stop offset="0.709" stop-color="#6CD2FE"/>
<stop offset="0.763" stop-color="#5DCEFA"/>
<stop offset="0.821" stop-color="#44C8F4"/>
<stop offset="0.883" stop-color="#22C0EB"/>
<stop offset="0.934" stop-color="#00B7E2"/>
</radialGradient>
<radialGradient id="paint4_radial" cx="0" cy="0" r="1" gradientUnits="userSpaceOnUse" gradientTransform="translate(24.5281 14.6804) scale(8.99922 9.71916)">
<stop offset="0.517" stop-color="#71D3FF"/>
<stop offset="0.581" stop-color="#6CD2FE"/>
<stop offset="0.658" stop-color="#5DCEFA"/>
<stop offset="0.743" stop-color="#44C8F4"/>
<stop offset="0.833" stop-color="#22C0EB"/>
<stop offset="0.907" stop-color="#00B7E2"/>
</radialGradient>
</defs>
</svg>
