<svg width="59" height="51" viewBox="0 0 59 51" fill="none" xmlns="http://www.w3.org/2000/svg">
<path d="M32.1872 20.133L32.0028 12.7898C32.0028 12.7898 36.4325 10.7658 37.2806 9.43101C38.1287 8.09625 37.7784 5.85703 36.8335 5.77336C35.8885 5.68969 31.8046 8.27156 31.4589 7.96875C31.1086 7.66594 33.1506 5.51437 33.0538 4.69758C32.9524 3.88078 29.9148 1.88062 29.9148 1.88062L26.4808 5.25539C26.4808 5.25539 27.4764 7.92492 27.3289 8.18391C27.1814 8.44289 22.4983 5.94469 21.5027 6.11601C20.5071 6.28734 20.8482 8.03648 21.1939 8.85726C21.5442 9.67406 27.9235 12.228 27.9235 12.228L27.647 20.2446C27.647 20.2446 26.4808 20.2287 26.1812 20.3602C25.8816 20.4877 25.1671 21.5236 25.1671 21.5236C25.1671 21.5236 18.4605 18.3839 18.4098 17.7384C18.3591 17.093 18.5112 11.3236 18.1609 10.722C17.8106 10.1203 16.3171 9.41906 15.5704 9.41906C14.8237 9.41906 14.3259 15.798 13.8788 15.798C13.4317 15.798 11.7354 12.0527 11.2376 12.0527C10.7398 12.0527 6.88175 12.6105 6.88175 12.6105L8.35214 17.6906L12.9339 18.5074L7.32425 23.9899C7.32425 23.9899 8.69784 25.1454 9.99308 24.8864C11.2883 24.6274 15.0219 21.4001 15.4183 21.4001C15.8147 21.4001 22.5905 24.7589 22.5905 24.7589C22.5905 24.7589 22.2909 25.3605 22.4891 25.7072C22.6873 26.0498 23.0376 26.4802 23.0376 26.4802C23.0376 26.4802 16.3171 30.0103 15.8654 29.9227C15.4137 29.835 10.8873 27.038 9.59206 27.038C8.29683 27.038 7.4994 28.5002 7.4994 28.5002L12.8785 32.4169L8.34753 34.3533L6.40698 37.8396C6.40698 37.8396 10.7905 39.1744 11.3851 39.0429C11.9797 38.9114 13.5285 35.7279 13.8235 35.6442C14.1231 35.5566 14.2337 36.3694 14.2337 36.3694C14.2337 36.3694 15.8147 40.6406 16.4139 40.5091C17.0132 40.3777 18.5066 39.5609 18.7048 38.9154C18.903 38.2699 18.4098 33.15 18.4098 33.15L25.4806 29.831C25.4806 29.831 26.0429 30.6199 26.4255 30.859C26.7251 31.0462 28.2139 31.1698 28.2139 31.1698L28.0157 37.8396C28.0157 37.8396 20.6407 40.5888 20.3918 41.3618C20.1429 42.1348 20.1982 43.864 20.8989 44.0791C21.5949 44.2943 27.0339 42.1427 27.2828 42.3141C27.5317 42.4854 27.1768 45.6689 27.1768 45.6689C27.1768 45.6689 30.0992 49.2389 30.7445 48.8963C31.3898 48.5536 33.653 46.3622 33.6714 45.9558C33.7129 45.1868 31.4958 42.5372 31.5373 42.3818C31.6249 42.0431 36.1375 44.8521 36.9349 44.7645C37.7323 44.6768 38.3269 43.9477 38.3269 43.1269C38.3269 42.3101 32.2517 38.4373 32.2517 38.4373L32.155 31.0383C32.155 31.0383 33.3303 30.9825 33.7314 30.8112C34.1278 30.6398 34.9206 29.082 34.9206 29.082L42.1619 33.2775C42.1619 33.2775 41.8623 40.3378 42.609 40.7681C43.3557 41.1984 44.7017 41.4574 45.1995 41.2423C45.6973 41.0271 45.748 35.0027 45.748 35.0027L48.887 37.4571C48.887 37.4571 53.395 37.1105 53.395 36.5925C53.395 36.0745 52.4915 33.15 52.1274 32.895C51.4775 32.4408 48.6104 32.6639 48.2739 32.5085C48.0066 32.385 53.5194 30.4845 53.5194 29.7115C53.5194 28.9385 51.7171 27.7153 51.2193 27.6715C50.7215 27.6277 44.2085 30.1418 44.2085 30.1418L36.6399 26.269C36.6399 26.269 37.0363 25.6673 37.0363 25.3645C37.0363 25.0617 36.5431 24.5557 36.5431 24.5557L44.3053 20.8901C44.3053 20.8901 51.1271 22.9978 51.7725 22.7428C52.4178 22.4838 52.9663 22.0097 52.9663 21.5395C52.9663 21.0694 47.2046 18.7784 47.6378 18.5712C47.9697 18.4118 51.1732 18.7425 51.671 18.5712C52.1689 18.3998 53.7545 14.9095 53.7038 14.7382C53.6531 14.5669 48.2832 13.4074 48.2832 13.4074L45.8909 15.8618C45.8909 15.8618 46.2873 11.212 45.6927 10.698C45.0981 10.1841 43.4894 10.4391 42.8441 10.8255C42.1988 11.212 41.8116 18.0572 41.8116 18.0572L34.5103 21.4798C34.5103 21.4798 33.8282 20.5315 33.4271 20.3562C33.0353 20.1689 32.1872 20.133 32.1872 20.133Z" fill="#95C7EC"/>
<path d="M35.2341 22.3324L43.7891 18.4755L43.66 10.5188C43.66 10.5188 42.3325 10.714 41.6826 11.4631C41.0327 12.2121 41.2493 17.2444 41.2493 17.2444L33.8467 20.7227L35.2341 22.3324Z" fill="#AFE3FF"/>
<path d="M45.8541 17.4914C45.8541 17.4914 48.6566 14.4792 49.1959 14.3278C50.0994 14.0728 53.5887 15.1327 53.5887 15.1327C53.5887 15.1327 53.9758 14.2999 53.8191 13.9772C53.6624 13.6545 49.3711 11.997 48.3432 12.3117C47.5412 12.5588 45.9094 15.2363 45.9094 15.2363L45.8541 17.4914Z" fill="#AFE3FF"/>
<path d="M45.6143 20.2167C45.43 20.1888 43.9365 21.0335 43.9365 21.0335C43.9365 21.0335 48.3707 23.3564 49.6706 23.4082C51.2746 23.4759 52.3348 22.4639 52.3348 22.4639C52.3348 22.4639 51.1871 22.4918 50.3528 22.2248C48.993 21.7866 45.6143 20.2167 45.6143 20.2167Z" fill="#AFE3FF"/>
<path d="M35.5797 27.9265L34.5288 29.7752C34.5288 29.7752 40.8483 33.1739 40.8759 33.3373C40.9082 33.4966 40.7192 39.3855 41.3737 40.0549C42.0237 40.7243 43.2636 41.0709 43.2636 41.0709C43.2636 41.0709 43.6369 32.397 43.6047 32.2615C43.5678 32.126 35.5797 27.9265 35.5797 27.9265Z" fill="#AFE3FF"/>
<path d="M43.6416 29.835C43.6416 29.835 48.0943 27.2292 49.3019 27.2292C50.5096 27.2292 51.5329 27.7631 51.5329 27.7631L45.6421 30.843L43.6416 29.835Z" fill="#AFE3FF"/>
<path d="M45.9554 33.7516C45.7987 34.1262 45.7203 35.5287 45.7203 35.5287C45.7203 35.5287 47.1677 38.4731 48.1864 38.7919C49.2096 39.1146 53.1092 37.8556 53.4226 37.5328C53.7314 37.2101 53.2751 35.9032 53.2751 35.9032C53.2751 35.9032 50.1914 36.9591 49.2696 36.8117C48.0896 36.6244 45.9554 33.7516 45.9554 33.7516Z" fill="#AFE3FF"/>
<path d="M27.2091 21.8503C26.762 22.2368 24.8122 24.7111 24.7754 25.1892C24.7385 25.6713 26.9095 28.8787 27.4304 29.1337C27.9512 29.3887 32.1458 29.1337 32.1458 29.1337L34.2983 25.3127C34.2983 25.3127 32.4039 21.8144 32.1089 21.7507C31.8139 21.6869 27.5087 21.5913 27.2091 21.8503Z" fill="#AFE3FF"/>
<path d="M29.122 8.78953C29.417 8.83734 28.0296 5.22351 28.0296 5.22351L31.0994 2.71734C31.0994 2.71734 29.9563 1.49812 29.3663 1.49812C28.7717 1.49812 25.5405 4.09594 25.5405 4.70953C25.5405 5.32312 27.3244 8.1839 27.3244 8.1839C27.3244 8.1839 28.5597 8.69789 29.122 8.78953Z" fill="#AFE3FF"/>
<path d="M20.8528 7.54242C20.8528 7.54242 20.8574 9.34734 21.5258 9.98883C22.1941 10.6303 26.951 12.6424 26.951 12.6424L27.0708 20.2566L29.1404 20.2486V11.3873C29.1404 11.3873 25.0197 9.68601 24.2038 9.36726C23.3879 9.04453 21.4474 8.21578 20.8528 7.54242Z" fill="#AFE3FF"/>
<path d="M18.2623 18.9935L24.4988 22.3962L25.5037 21.0813L18.4098 17.4874L18.2623 18.9935Z" fill="#AFE3FF"/>
<path d="M13.8143 15.8339C13.8143 15.8339 15.1325 16.9535 15.4183 16.9456C15.9714 16.9296 15.9346 9.47486 15.9346 9.47486C15.9346 9.47486 14.8698 9.12822 14.3121 9.57845C13.7497 10.0247 13.8143 15.8339 13.8143 15.8339Z" fill="#AFE3FF"/>
<path d="M13.1413 17.6468C14.4642 17.9377 14.2153 18.7385 14.0309 18.9935C13.8466 19.2485 7.79446 24.3206 7.79446 24.3206C7.79446 24.3206 6.64211 23.7748 6.64211 23.197C6.64211 22.6193 11.8922 18.8859 11.6156 18.8302C11.399 18.7903 7.64235 19.3362 6.82649 18.8939C6.30102 18.611 4.84446 13.8736 5.12102 13.2361C5.34227 12.7221 7.23672 12.5707 7.23672 12.5707C7.23672 12.5707 7.90508 16.8061 8.42594 17.0332C8.94219 17.2603 12.0858 17.4157 13.1413 17.6468Z" fill="#AFE3FF"/>
<path d="M22.9086 26.2849L15.5151 29.7912L17.3727 31.0941L23.8305 27.5002L22.9086 26.2849Z" fill="#AFE3FF"/>
<path d="M14.4781 32.1858C14.4228 32.7316 11.8231 33.8313 11.6019 33.9947C11.3806 34.1541 8.94686 33.664 8.79475 33.8552C8.64725 34.0465 7.25061 37.7599 6.98787 37.9791C6.951 38.0109 5.47139 37.6125 5.36076 37.4013C5.09342 36.8953 6.75279 32.891 7.4949 32.3133C8.23701 31.7355 11.5051 32.4727 11.6157 32.2814C11.7263 32.0902 7.3474 30.0342 7.01092 29.3927C6.67904 28.7512 8.08951 27.7233 8.08951 27.7233C8.08951 27.7233 14.5519 31.4447 14.4781 32.1858Z" fill="#AFE3FF"/>
<path d="M15.4368 34.3055C15.1925 34.1581 13.9065 35.6363 13.9065 35.6363C13.9065 35.6363 14.3582 40.4135 14.7777 40.7203C15.2017 41.0311 16.4232 40.5052 16.4232 40.5052C16.4232 40.5052 15.8056 34.5286 15.4368 34.3055Z" fill="#AFE3FF"/>
<path d="M27.2875 31.0502C27.2875 31.0502 27.3567 36.9989 27.2092 37.222C27.0617 37.4452 21.4613 39.7441 20.6731 40.6247C20.1384 41.2223 20.2767 42.7962 20.2767 42.7962C20.2767 42.7962 28.8778 38.6046 29.0622 38.4771C29.2465 38.3496 29.1036 31.0702 29.1036 31.0702L27.2875 31.0502Z" fill="#AFE3FF"/>
<path d="M38.3177 43.2584C38.3177 43.2584 32.4039 40.0908 32.3348 39.6645C32.2656 39.2581 32.2288 37.497 32.2288 37.497C32.2288 37.497 37.4235 40.6566 37.9444 41.3937C38.4652 42.1308 38.3177 43.2584 38.3177 43.2584Z" fill="#AFE3FF"/>
<path d="M27.8406 45.2465C27.9328 46.0793 31.3529 48.454 31.3529 48.454C31.3529 48.454 30.2697 49.466 29.712 49.4979C29.1543 49.5298 25.499 46.4976 25.4253 45.9876C25.3515 45.4737 27.2829 42.2344 27.2829 42.2344C27.2829 42.2344 28.1494 41.8758 28.8039 41.7562C29.2188 41.6765 27.753 44.4377 27.8406 45.2465Z" fill="#AFE3FF"/>
<path d="M32.7265 24.8984C32.7265 24.8984 32.178 25.8426 31.9061 26.3766C31.6341 26.9105 31.293 27.8229 31.293 27.8229C31.293 27.8229 28.7302 27.9942 28.048 27.9703C27.1584 27.9424 26.6468 29.329 27.9466 29.3569C29.2465 29.3848 32.3532 29.4445 32.6251 29.2692C32.8971 29.0939 34.9114 25.9024 34.9114 25.1932C34.9114 24.484 33.1368 22.5077 32.4869 21.9459C31.7309 21.2925 30.4034 21.9459 31.1547 23.0098C31.9061 24.0736 32.7265 24.8984 32.7265 24.8984Z" fill="#FEFEFE"/>
<path d="M43.0653 11.8057C42.0236 11.7738 42.102 12.993 42.1388 14.4035C42.1757 15.814 42.2863 16.7463 43.1391 16.7463C44.1808 16.7463 43.9918 14.79 43.9918 13.8895C43.9918 12.993 44.1439 11.8376 43.0653 11.8057Z" fill="#FEFEFE"/>
<path d="M29.4032 3.01218C30.007 3.53413 29.1819 4.42265 28.8455 4.68163C28.5136 4.93663 27.5825 5.45062 26.951 4.93663C26.3195 4.42265 27.0616 3.68554 27.6562 3.29905C28.2508 2.91257 28.9561 2.6257 29.4032 3.01218Z" fill="#FEFEFE"/>
<path d="M29.1773 11.1005C28.214 11.0048 28.2508 13.0568 28.2877 15.563C28.3338 18.7744 28.2877 20.2805 29.0667 20.2486C29.9563 20.2127 29.6982 18.611 29.6982 15.2721C29.6982 13.4393 29.9194 11.1722 29.1773 11.1005Z" fill="#FEFEFE"/>
<path d="M6.90024 13.1843C5.64188 13.523 6.195 14.8538 6.52688 15.818C6.73891 16.4316 7.38422 18.1807 8.56883 17.8739C9.75344 17.5671 9.05281 16.1088 8.79008 15.1765C8.53656 14.2441 7.97883 12.8974 6.90024 13.1843Z" fill="#FEFEFE"/>
<path d="M42.5445 35.6841C41.8024 35.6841 41.7286 36.9033 41.7286 37.995C41.7286 39.0867 41.7286 39.8876 42.5814 39.8876C43.4341 39.8876 43.2866 38.2819 43.2866 37.7041C43.2866 37.1264 43.4018 35.6841 42.5445 35.6841Z" fill="#FEFEFE"/>
<path d="M29.1036 31.0303C28.4721 31.0542 28.3984 32.2814 28.3984 34.688C28.3984 37.0945 28.2463 38.5169 29.1774 38.4771C29.9195 38.4452 29.772 36.0387 29.772 34.4011C29.772 32.7635 29.9978 30.9984 29.1036 31.0303Z" fill="#FEFEFE"/>
<path d="M17.1515 31.0542C17.5249 31.4288 19.4332 30.3809 20.8068 29.7274C22.4569 28.9425 24.2868 28.1895 23.8997 27.5241C23.5125 26.8587 21.5811 28.038 20.2444 28.6397C18.9077 29.2453 16.52 30.4207 17.1515 31.0542Z" fill="#FEFEFE"/>
<path d="M11.3898 34.174C10.9888 34.433 9.86873 34.2696 9.38474 34.5923C8.90076 34.9151 8.79935 36.0068 8.2324 36.198C7.37966 36.4849 6.7113 35.9749 7.1538 34.9788C7.60091 33.9827 7.74841 33.3094 8.15404 33.0544C8.56427 32.7994 10.0485 32.8631 10.6431 32.8631C11.6848 32.8591 11.9844 33.7875 11.3898 34.174Z" fill="#FEFEFE"/>
</svg>
