<svg width="52" height="54" viewBox="0 0 52 55" fill="none" xmlns="http://www.w3.org/2000/svg">
<path d="M31.6875 29.1414L22.4128 30.8473C22.4128 30.8473 19.3253 39.166 19.1343 39.7289C18.9434 40.2918 18.9515 41.1812 19.7925 41.1812C20.8609 41.1812 26.2843 41.1512 26.2843 41.1512C26.2843 41.1512 24.9681 47.8672 24.8909 48.4688C24.8137 49.0703 25.4231 49.5988 25.9593 48.993C26.4956 48.3871 33.8853 38.341 34.2062 37.8512C34.779 36.9746 34.2265 36.1668 33.5765 36.1281C32.9265 36.0895 28.5715 36.1883 28.5715 36.1883L31.6875 29.1414Z" fill="#FECA18"/>
<path d="M29.2174 30.3102C29.2174 30.3102 27.1496 35.1484 27.0724 35.4234C26.8449 36.2398 27.8443 36.5707 28.1287 35.909C28.4131 35.243 30.875 29.859 30.875 29.859L29.2174 30.3102Z" fill="#FDB900"/>
<path d="M20.3084 39.6043C20.8528 39.5871 25.6303 39.5742 26.0284 39.5441C26.7719 39.484 26.8856 40.5711 26.0284 40.5711C25.1387 40.5711 20.4506 40.5883 20.1662 40.6012C19.5081 40.6355 19.4187 39.6344 20.3084 39.6043Z" fill="#FDB900"/>
<path d="M24.1394 29.6527C24.1394 29.6527 21.7019 36.1238 21.5638 36.6094C20.991 38.6375 23.0506 38.5773 23.595 37.4258C23.8631 36.8543 26.4835 30.9848 26.5972 29.9234C26.711 28.8664 24.1394 29.6527 24.1394 29.6527Z" fill="#FFE36A"/>
<path d="M24.7853 37.1981C24.4359 36.9445 24.0134 37.168 23.7575 37.5934C23.5015 38.0188 23.1278 38.7106 23.7006 39.0758C24.2165 39.4024 24.6715 38.7449 24.8747 38.4399C25.0737 38.1348 25.3297 37.5891 24.7853 37.1981Z" fill="#FFE36A"/>
<path d="M28.9819 38.5859C28.0516 38.3754 27.751 39.1918 27.5519 40.1586C27.3528 41.1254 26.6053 44.2535 26.4672 45.027C26.2682 46.1141 27.2107 46.2687 27.6128 45.2676C27.9135 44.5199 29.2175 41.1469 29.3841 40.6098C29.64 39.7977 29.9244 38.8008 28.9819 38.5859Z" fill="#FFE36A"/>
<path d="M43.8425 19.8773C43.8425 19.8773 44.8988 4.84688 32.7478 2.93906C21.8238 1.22461 19.6788 12.1945 19.6788 12.1945C19.6788 12.1945 15.5513 11.1762 12.5857 13.9777C9.64035 16.7621 9.86785 20.0578 9.86785 20.0578C9.86785 20.0578 2.6041 18.8461 1.86066 25.4418C1.16597 31.6035 9.7541 30.0695 9.7541 30.0695L50.5335 26.8941C50.5335 26.8941 51.5003 23.6543 48.4169 21.2094C46.5847 19.7527 43.8425 19.8773 43.8425 19.8773Z" fill="#E4EAEE"/>
<path d="M21.8603 23.2848C22.2015 23.1645 24.1475 24.9219 29.7537 24.9777C37.4562 25.0594 43.29 20.2598 43.29 20.2598C43.29 20.2598 43.485 21.7207 42.8715 22.7605C42.1078 24.0496 40.9256 24.2945 40.9256 24.2945C40.9256 24.2945 43.0625 25.8672 45.9956 25.6266C48.6403 25.4074 50.5537 24.4578 50.5537 24.4578C50.5537 24.4578 50.8097 25.8371 50.6675 27.182C50.3831 29.8633 48.8962 30.9547 47.255 31.1523C46.0484 31.2984 35.7419 31.35 31.5087 31.393C27.694 31.4316 8.25498 31.9473 6.26842 31.7152C4.20873 31.4746 2.64467 30.1641 2.07592 28.2863C1.64123 26.8641 1.84842 25.9488 1.84842 25.9488C1.84842 25.9488 5.63467 27.0102 7.75936 26.7566C10.4284 26.4344 12.22 24.6598 12.22 24.6598C12.22 24.6598 13.8206 25.6266 17.3672 25.3043C20.4181 25.0207 21.8603 23.2848 21.8603 23.2848Z" fill="url(#paint0_radial)"/>
<path d="M42.2093 31.8828C41.7949 31.6379 40.3203 33.0945 39.4915 33.9711C38.9837 34.5082 37.3668 35.9133 37.1474 37.2668C36.6031 40.5926 40.2065 41.3488 41.6365 39.8063C42.7171 38.6418 42.5221 36.3688 42.5221 35.6039C42.5262 34.5426 42.7253 32.1836 42.2093 31.8828Z" fill="#52C0EE"/>
<path d="M12.6019 33.6703C12.2078 33.4297 10.7941 34.8391 9.99781 35.6941C9.51031 36.2141 7.9625 37.5762 7.74312 38.8996C7.20687 42.1437 10.6397 42.9043 12.0128 41.409C13.0487 40.2789 12.8781 38.0574 12.8822 37.3098C12.8862 36.2742 13.0894 33.9711 12.6019 33.6703Z" fill="#52C0EE"/>
<path d="M19.1547 43.2867C18.7119 43.1105 17.2209 44.5457 16.3922 45.4223C15.8844 45.9594 14.3812 47.3344 14.1619 48.6879C13.6175 52.0137 17.1072 52.8 18.5372 51.2574C19.6178 50.093 19.4391 47.8199 19.4228 47.0551C19.3822 45.0613 19.4594 43.407 19.1547 43.2867Z" fill="#52C0EE"/>
<path d="M39.7232 36.1883C39.1544 35.8746 38.4638 36.0078 38.025 36.9746C37.5863 37.9414 37.9478 38.7106 38.4069 38.9297C38.935 39.1875 39.5891 38.9512 40.0278 38.1648C40.4666 37.3785 40.1985 36.4504 39.7232 36.1883Z" fill="#B2E6FE"/>
<path d="M16.2541 47.6652C15.6691 47.4504 15.0272 47.6781 14.7347 48.6707C14.4422 49.6633 14.8931 50.3422 15.3603 50.4883C15.9006 50.6559 16.4938 50.3336 16.8106 49.5129C17.1234 48.6922 16.7416 47.8457 16.2541 47.6652Z" fill="#B2E6FE"/>
<path d="M9.77844 37.7996C9.16094 37.6192 8.51094 37.8984 8.27532 38.9426C8.03969 39.9867 8.54344 40.657 9.035 40.7687C9.60375 40.902 10.1928 40.5281 10.4691 39.6602C10.7413 38.8008 10.2984 37.95 9.77844 37.7996Z" fill="#B2E6FE"/>
<defs>
<radialGradient id="paint0_radial" cx="0" cy="0" r="1" gradientUnits="userSpaceOnUse" gradientTransform="translate(26.7352 32.3453) rotate(-88.4396) scale(12.647 17.9147)">
<stop offset="0.193" stop-color="#FFE366"/>
<stop offset="0.331" stop-color="#EDDD82"/>
<stop offset="0.571" stop-color="#D0D4AD"/>
<stop offset="0.759" stop-color="#BFCFC7"/>
<stop offset="0.87" stop-color="#B8CDD1"/>
</radialGradient>
</defs>
</svg>
